<svg width="24" height="24" viewBox="0 0 24 24" fill="red" xmlns="http://www.w3.org/2000/svg">
<g clip-path="url(#clip0_712_2631)">
<path d="M22.3671 5.9899C21.2952 4.15322 19.8411 2.69911 18.0046 1.62726C16.1678 0.555349 14.1626 0.0195312 11.9875 0.0195312C9.81266 0.0195312 7.80678 0.555513 5.97037 1.62726C4.13369 2.69906 2.67969 4.15322 1.60773 5.9899C0.535927 7.82653 0 9.83214 0 12.0067C0 14.6188 0.762096 16.9677 2.28667 19.0539C3.81108 21.1404 5.78039 22.5841 8.19444 23.3853C8.47544 23.4374 8.68346 23.4007 8.81872 23.2761C8.95402 23.1514 9.0216 22.9951 9.0216 22.8081C9.0216 22.7768 9.01892 22.496 9.01372 21.9652C9.00836 21.4344 9.00585 20.9714 9.00585 20.5763L8.64683 20.6384C8.41793 20.6803 8.12917 20.6981 7.78054 20.693C7.43207 20.6882 7.07032 20.6517 6.69578 20.5838C6.32108 20.5165 5.97256 20.3604 5.64995 20.1158C5.32751 19.8713 5.09861 19.5512 4.9633 19.1561L4.80722 18.7969C4.70318 18.5578 4.53939 18.2921 4.31563 18.0009C4.09186 17.7095 3.86559 17.5119 3.63668 17.4079L3.5274 17.3297C3.45458 17.2777 3.38701 17.215 3.32452 17.1422C3.26209 17.0694 3.21534 16.9966 3.18413 16.9237C3.15286 16.8507 3.17877 16.7908 3.26214 16.7439C3.34551 16.6969 3.49618 16.6741 3.71481 16.6741L4.02686 16.7207C4.23499 16.7625 4.49243 16.887 4.79951 17.0953C5.10642 17.3034 5.35872 17.5739 5.55646 17.9067C5.79592 18.3334 6.08441 18.6586 6.42276 18.8824C6.76084 19.1061 7.1017 19.2178 7.44503 19.2178C7.78836 19.2178 8.08488 19.1918 8.33472 19.14C8.58429 19.088 8.81844 19.0098 9.03707 18.9058C9.13072 18.2083 9.38569 17.6725 9.80179 17.2979C9.20873 17.2356 8.67554 17.1418 8.20193 17.0169C7.7286 16.892 7.23947 16.6891 6.73487 16.4079C6.23 16.1271 5.81117 15.7783 5.47829 15.3623C5.14535 14.9461 4.87211 14.3996 4.65895 13.7234C4.44569 13.0469 4.33903 12.2665 4.33903 11.3821C4.33903 10.1228 4.75014 9.05113 5.57221 8.16657C5.18712 7.2198 5.22347 6.15845 5.68139 4.98261C5.98316 4.88885 6.43069 4.95921 7.02375 5.19325C7.61691 5.4274 8.05121 5.62799 8.32707 5.79429C8.60293 5.96054 8.82396 6.10143 8.99049 6.21569C9.95841 5.94524 10.9573 5.80998 11.9874 5.80998C13.0175 5.80998 14.0165 5.94524 14.9845 6.21569L15.5776 5.84125C15.9832 5.59141 16.4622 5.36246 17.0134 5.15433C17.5649 4.94631 17.9866 4.88902 18.2781 4.98278C18.7462 6.15867 18.7879 7.21997 18.4027 8.16674C19.2247 9.05129 19.636 10.1232 19.636 11.3822C19.636 12.2667 19.5289 13.0495 19.316 13.7312C19.1028 14.413 18.8272 14.9589 18.4891 15.3701C18.1507 15.7813 17.7292 16.1273 17.2246 16.4081C16.7199 16.6891 16.2306 16.8919 15.7572 17.0169C15.2837 17.1419 14.7505 17.2358 14.1574 17.2982C14.6983 17.7663 14.9688 18.5052 14.9688 19.5145V22.8076C14.9688 22.9947 15.0339 23.1509 15.1641 23.2757C15.2942 23.4003 15.4996 23.437 15.7806 23.3848C18.195 22.5837 20.1643 21.1399 21.6886 19.0535C23.2128 16.9672 23.9752 14.6184 23.9752 12.0062C23.9746 9.83198 23.4384 7.82653 22.3671 5.9899Z" fill="black"/>
</g>
<defs>
<clipPath id="clip0_712_2631">
<rect width="24" height="24" fill="red"/>
</clipPath>
</defs>
</svg>
