<svg width="24" height="24" viewBox="0 0 24 24" fill="none" xmlns="http://www.w3.org/2000/svg">
<g clip-path="url(#clip0_712_2639)">
<path d="M16.8208 0H7.13722C3.20174 0 0 3.20174 0 7.13722V16.8208C0 20.7563 3.20174 23.958 7.13722 23.958H16.8208C20.7563 23.958 23.958 20.7563 23.958 16.8208V7.13722C23.958 3.20174 20.7562 0 16.8208 0ZM21.5478 16.8208C21.5478 19.4314 19.4314 21.5478 16.8208 21.5478H7.13722C4.52657 21.5478 2.41017 19.4314 2.41017 16.8208V7.13722C2.41017 4.52652 4.52657 2.41017 7.13722 2.41017H16.8208C19.4314 2.41017 21.5478 4.52652 21.5478 7.13722V16.8208Z" fill="black"/>
<path d="M11.9786 5.78223C8.56192 5.78223 5.78223 8.56192 5.78223 11.9786C5.78223 15.3952 8.56192 18.175 11.9786 18.175C15.3953 18.175 18.175 15.3953 18.175 11.9786C18.175 8.56188 15.3953 5.78223 11.9786 5.78223ZM11.9786 15.7648C9.88753 15.7648 8.1924 14.0697 8.1924 11.9786C8.1924 9.88753 9.88757 8.1924 11.9786 8.1924C14.0697 8.1924 15.7648 9.88753 15.7648 11.9786C15.7648 14.0697 14.0697 15.7648 11.9786 15.7648Z" fill="black"/>
<path d="M18.1869 7.31429C19.007 7.31429 19.6717 6.64953 19.6717 5.82951C19.6717 5.00949 19.007 4.34473 18.1869 4.34473C17.3669 4.34473 16.7021 5.00949 16.7021 5.82951C16.7021 6.64953 17.3669 7.31429 18.1869 7.31429Z" fill="black"/>
</g>
<defs>
<clipPath id="clip0_712_2639">
<rect width="24" height="24" fill="white"/>
</clipPath>
</defs>
</svg>
