<svg width="24" height="20" viewBox="0 0 24 20" fill="none" xmlns="http://www.w3.org/2000/svg">
<g clip-path="url(#clip0_712_2624)">
<path d="M0.362483 9.24574C2.81776 7.89334 5.5585 6.76456 8.11931 5.63004C12.5249 3.77178 16.948 1.94573 21.4157 0.245693C22.285 -0.0439581 23.8469 -0.327186 24 0.960957C23.9161 2.78438 23.5711 4.59713 23.3345 6.40989C22.734 10.3963 22.0398 14.369 21.3629 18.3423C21.1296 19.6658 19.4717 20.3509 18.4109 19.504C15.8614 17.7819 13.2924 16.0766 10.7755 14.3146C9.95104 13.4769 10.7156 12.2738 11.4519 11.6755C13.5517 9.6062 15.7785 7.84806 17.7686 5.67178C18.3054 4.37552 16.7193 5.46796 16.1961 5.80273C13.3215 7.78368 10.5172 9.88557 7.48645 11.6266C5.93834 12.4787 4.13399 11.7505 2.58658 11.275C1.19916 10.7005 -0.833823 10.1216 0.362483 9.24574Z" fill="black"/>
</g>
<defs>
<clipPath id="clip0_712_2624">
<rect width="24" height="20" fill="white"/>
</clipPath>
</defs>
</svg>
