<svg width="23" height="21" viewBox="0 0 23 21" fill="none" xmlns="http://www.w3.org/2000/svg">
<g clip-path="url(#clip0_712_2648)">
<path d="M22.8447 12.8741V21H18.1284V13.4186C18.1284 11.515 17.4474 10.2151 15.7398 10.2151C14.4366 10.2151 13.6625 11.0903 13.3206 11.9377C13.1964 12.2406 13.1644 12.6611 13.1644 13.0859V20.9996H8.44772C8.44772 20.9996 8.51103 8.15933 8.44772 6.83018H13.1648V8.83813C13.1553 8.85394 13.1419 8.8694 13.1335 8.88451H13.1648V8.83813C13.7916 7.87474 14.9093 6.49746 17.4154 6.49746C20.5184 6.49746 22.8447 8.52262 22.8447 12.8741ZM3.51365 0C1.90027 0 0.844727 1.05791 0.844727 2.44783C0.844727 3.80825 1.86967 4.89672 3.45175 4.89672H3.48235C5.12739 4.89672 6.15022 3.80825 6.15022 2.44783C6.11892 1.05791 5.12739 0 3.51365 0ZM1.12506 21H5.83999V6.83018H1.12506V21Z" fill="black"/>
</g>
<defs>
<clipPath id="clip0_712_2648">
<rect width="23" height="21" fill="white"/>
</clipPath>
</defs>
</svg>
