<svg width="520" height="301" viewBox="0 0 520 301" fill="none" xmlns="http://www.w3.org/2000/svg">
<g clip-path="url(#clip0_842_1700)">
<path d="M70.5471 1C57.8391 1 47.5361 11.296 47.5361 24.0121V284.405H472.038V24.0121C472.038 11.3029 461.729 1 449.027 1H70.5471Z" fill="#121212"/>
<path fill-rule="evenodd" clip-rule="evenodd" d="M48.9229 287.968H471.077V23.0073C471.077 10.8552 461.226 1 449.085 1H70.9152C58.771 1 48.9229 10.8561 48.9229 23.0073V287.968Z" stroke="#C5C5C5" stroke-width="2"/>
<path d="M260.145 9.5984C261.726 9.5984 263.008 8.3167 263.008 6.7357C263.008 5.15475 261.726 3.87305 260.145 3.87305C258.563 3.87305 257.281 5.15475 257.281 6.7357C257.281 8.3167 258.563 9.5984 260.145 9.5984Z" fill="url(#paint0_linear_842_1700)"/>
<path d="M260.145 8.1654C260.935 8.1654 261.576 7.52461 261.576 6.73411C261.576 5.94364 260.935 5.30273 260.145 5.30273C259.354 5.30273 258.713 5.94364 258.713 6.73411C258.713 7.52461 259.354 8.1654 260.145 8.1654Z" fill="#103470"/>
<path d="M0 294.154C0 294.154 5.4235 299.571 20.7825 301.001H498.79C498.79 301.001 511.533 300.043 519.799 294.39H12.0439L0 294.154Z" fill="black"/>
<path fill-rule="evenodd" clip-rule="evenodd" d="M0 294.154C0 294.154 5.4235 299.571 20.7825 301.001H498.79C498.79 301.001 511.533 300.043 519.799 294.39H12.0439L0 294.154Z" fill="url(#paint1_linear_842_1700)"/>
<path d="M519.999 284.406H0.289062V294.426H519.999V284.406Z" fill="url(#paint2_linear_842_1700)"/>
<path fill-rule="evenodd" clip-rule="evenodd" d="M223.227 284.736C223.227 284.736 223.285 288.881 227.435 290.861H291.967C291.967 290.861 295.517 289.573 296.307 284.736H224.273" fill="url(#paint3_linear_842_1700)"/>
<path d="M223.227 284.736C223.227 284.736 223.285 288.881 227.435 290.861H291.967C291.967 290.861 295.517 289.573 296.307 284.736H224.273" fill="black"/>
</g>
<defs>
<linearGradient id="paint0_linear_842_1700" x1="25999.2" y1="-4" x2="25999.2" y2="29995.9" gradientUnits="userSpaceOnUse">
<stop stop-color="#151515"/>
<stop offset="1" stop-color="#2C2C2C"/>
</linearGradient>
<linearGradient id="paint1_linear_842_1700" x1="25999.9" y1="0.99928" x2="25999.9" y2="30001.4" gradientUnits="userSpaceOnUse">
<stop stop-color="#96979B"/>
<stop offset="1" stop-color="#2A2B2D"/>
</linearGradient>
<linearGradient id="paint2_linear_842_1700" x1="51999.9" y1="15000.1" x2="0.000814995" y2="15000.1" gradientUnits="userSpaceOnUse">
<stop stop-color="#808185"/>
<stop offset="0.0021249" stop-color="#CFD0D4"/>
<stop offset="0.00797476" stop-color="#CFD0D2"/>
<stop offset="0.0210448" stop-color="#949599"/>
<stop offset="0.0373191" stop-color="#A7A8AC"/>
<stop offset="0.0423427" stop-color="#B6B7BB"/>
<stop offset="0.096405" stop-color="#D8D8D8"/>
<stop offset="0.909096" stop-color="#DDDEE0"/>
<stop offset="0.956196" stop-color="#B1B2B4"/>
<stop offset="0.982553" stop-color="#C2C3C7"/>
<stop offset="0.991276" stop-color="#F1F3F2"/>
<stop offset="0.993572" stop-color="#E9EBEA"/>
<stop offset="0.997305" stop-color="#D4D5D7"/>
<stop offset="1" stop-color="#7A7B7F"/>
</linearGradient>
<linearGradient id="paint3_linear_842_1700" x1="52000.1" y1="11170.6" x2="-0.00186321" y2="11170.6" gradientUnits="userSpaceOnUse">
<stop stop-color="#949599"/>
<stop offset="0.0358223" stop-color="#9E9FA3"/>
<stop offset="0.0516615" stop-color="#B9BABC"/>
<stop offset="0.0856027" stop-color="#E0E1E3"/>
<stop offset="0.918294" stop-color="#D8D9DB"/>
<stop offset="0.945447" stop-color="#C2C3C5"/>
<stop offset="1" stop-color="#8D8E90"/>
</linearGradient>
<clipPath id="clip0_842_1700">
<rect width="520" height="301" fill="white"/>
</clipPath>
</defs>
</svg>
